<?xml version="1.0" encoding="UTF-8" standalone="no"?>
<svg
   width="752pt"
   height="752pt"
   version="1.1"
   viewBox="0 0 752 752"
   id="svg4"
   sodipodi:docname="calendar-link.svg"
   inkscape:version="1.1.1 (1:1.1+202109281949+c3084ef5ed)"
   xmlns:inkscape="http://www.inkscape.org/namespaces/inkscape"
   xmlns:sodipodi="http://sodipodi.sourceforge.net/DTD/sodipodi-0.dtd"
   xmlns="http://www.w3.org/2000/svg"
   xmlns:svg="http://www.w3.org/2000/svg"
   xmlns:rdf="http://www.w3.org/1999/02/22-rdf-syntax-ns#"
   xmlns:cc="http://creativecommons.org/ns#"
   xmlns:dc="http://purl.org/dc/elements/1.1/">
  <metadata
     id="metadata10">
    <rdf:RDF>
      <cc:Work
         rdf:about="">
        <dc:format>image/svg+xml</dc:format>
        <dc:type
           rdf:resource="http://purl.org/dc/dcmitype/StillImage" />
      </cc:Work>
    </rdf:RDF>
  </metadata>
  <defs
     id="defs8" />
  <sodipodi:namedview
     pagecolor="#ffffff"
     bordercolor="#666666"
     borderopacity="1"
     objecttolerance="10"
     gridtolerance="10"
     guidetolerance="10"
     inkscape:pageopacity="0"
     inkscape:pageshadow="2"
     inkscape:window-width="1920"
     inkscape:window-height="1031"
     id="namedview6"
     showgrid="false"
     inkscape:zoom="0.66573351"
     inkscape:cx="227.56854"
     inkscape:cy="518.22538"
     inkscape:window-x="0"
     inkscape:window-y="25"
     inkscape:window-maximized="1"
     inkscape:current-layer="svg4"
     inkscape:pagecheckerboard="0"
     inkscape:document-units="pt" />
  <path
     d="m 185.48693,1.2237998 c -9.38922,0.1654381 -16.87516,8.0482853 -16.72772,17.6056022 v 38.258351 h -57.31843 c -60.520232,0 -109.734265,50.099887 -109.734265,111.713917 v 469.89127 c 0,61.60483 49.214033,111.7636 109.734265,111.7636 h 529.69591 c 60.52023,0 109.79718,-50.15877 109.79718,-111.7636 l 0.008,-469.89127 c 0,-61.61218 -49.28415,-111.713917 -109.79719,-111.713917 H 583.88961 V 18.829402 c 0.0702,-4.692464 -1.72753,-9.2052173 -4.98594,-12.5251676 -3.25145,-3.3199365 -7.6896,-5.1523546 -12.29642,-5.0804346 -4.51546,0.064696 -8.82742,1.9617514 -11.9735,5.260174 -3.14614,3.3055932 -4.87359,7.7463982 -4.80348,12.3454282 V 57.087753 H 393.33908 V 18.829402 c 0.0702,-4.692464 -1.72755,-9.2124164 -4.98595,-12.5323392 -3.25846,-3.3127649 -7.70382,-5.145183 -12.31061,-5.073263 -9.38221,0.1796151 -16.86114,8.0482853 -16.7137,17.6056022 V 57.087753 H 202.77512 V 18.829402 c 0.0702,-4.692464 -1.72755,-9.2052173 -4.98595,-12.5251676 -3.25146,-3.3199365 -7.6896,-5.1523546 -12.29639,-5.0804346 z M 111.44024,91.688384 h 57.31843 v 65.335556 c -0.25984,4.75704 1.41153,9.41365 4.62781,12.87727 3.21639,3.46362 7.69663,5.42538 12.37372,5.42538 4.6841,0 9.15748,-1.96176 12.37372,-5.42538 3.2164,-3.46362 4.89477,-8.12023 4.63483,-12.87727 V 91.695763 h 156.56088 v 65.328177 h -0.008 c -0.25984,4.75704 1.41153,9.41365 4.63484,12.87727 3.2164,3.46362 7.68961,5.42538 12.37371,5.42538 4.67707,0 9.15747,-1.96176 12.37371,-5.42538 3.2164,-3.46362 4.88777,-8.12023 4.62783,-12.87727 V 91.695763 h 156.49074 v 65.328177 c -0.0983,4.66378 1.65033,9.16935 4.85257,12.50363 3.20226,3.33429 7.59146,5.21695 12.17702,5.21695 4.57877,0 8.96786,-1.88266 12.17705,-5.21695 3.20219,-3.33428 4.95089,-7.83985 4.85255,-12.50363 V 91.695763 h 57.2555 c 42.24044,0 75.74558,34.111867 75.74558,77.112717 v 13.62449 H 35.778763 v -13.62449 c 0,-43.00085 33.420599,-77.112717 75.661077,-77.112717 z M 35.779176,217.0982 H 716.88351 v 421.60156 c 0,43.00086 -33.50507,77.09065 -75.74555,77.09065 H 111.44204 c -42.240477,0 -75.661061,-34.08979 -75.661061,-77.09065 z m 136.210064,59.50767 c -7.90731,0 -15.48474,3.1978 -21.07527,8.88182 -5.58998,5.6914 -8.72908,13.40909 -8.72908,21.44984 0,8.04828 3.1391,15.76599 8.72908,21.45719 5.58999,5.68401 13.16723,8.88182 21.07527,8.88182 7.90033,0 15.47775,-3.19781 21.0681,-8.88182 5.59002,-5.69139 8.72911,-13.40909 8.72911,-21.45719 0,-8.04114 -3.13909,-15.75882 -8.72911,-21.44984 -5.58999,-5.68402 -13.16722,-8.88182 -21.0681,-8.88182 z m 136.2227,0 h -0.008 c -7.90033,0 -15.47776,3.1978 -21.06814,8.88182 -5.58998,5.6914 -8.72907,13.40909 -8.72907,21.44984 0,8.04828 3.13909,15.76599 8.72907,21.45719 5.59,5.68401 13.16727,8.88182 21.06814,8.88182 7.9073,0 15.48474,-3.19781 21.07526,-8.88182 5.59,-5.69139 8.72909,-13.40909 8.72909,-21.45719 0,-8.04114 -3.13909,-15.75882 -8.72909,-21.44984 -5.58998,-5.68402 -13.16721,-8.88182 -21.07526,-8.88182 z m 136.22265,0 h -0.008 c -7.90031,0 -15.47776,3.1978 -21.06812,8.88182 -5.58998,5.6914 -8.72908,13.40909 -8.72908,21.44984 0,8.04828 3.1391,15.76599 8.72908,21.45719 5.59001,5.68401 13.16727,8.88182 21.06812,8.88182 7.90734,0 15.48475,-3.19781 21.0753,-8.88182 5.58998,-5.69139 8.72908,-13.40909 8.72908,-21.45719 0,-8.04114 -3.1391,-15.75882 -8.72908,-21.44984 -5.59001,-5.68402 -13.16727,-8.88182 -21.0753,-8.88182 z m 136.22266,0 h -0.008 c -7.90032,0 -15.48477,3.1978 -21.06812,8.88182 -5.58999,5.6914 -8.72909,13.40909 -8.72909,21.44984 0,8.04828 3.1391,15.76599 8.72909,21.45719 5.58299,5.68401 13.16727,8.88182 21.06812,8.88182 7.90732,0 15.48474,-3.19781 21.0753,-8.88182 5.58297,-5.69139 8.72206,-13.40909 8.72206,-21.45719 0,-8.04114 -3.13909,-15.75882 -8.72206,-21.44984 -5.59002,-5.68402 -13.16726,-8.88182 -21.0753,-8.88182 z m -408.6698,121.34244 c -7.90731,0 -15.48474,3.19779 -21.07528,8.88897 -5.58999,5.68404 -8.72909,13.40193 -8.72909,21.44986 0,8.0411 3.1391,15.75882 8.72909,21.44983 5.58998,5.69101 13.16723,8.88181 21.07528,8.88181 7.90033,0 15.47775,-3.1906 21.0681,-8.88181 5.59038,-5.69119 8.72909,-13.40909 8.72909,-21.44983 0,-8.04828 -3.13907,-15.766 -8.72909,-21.44986 -5.58999,-5.69136 -13.16723,-8.88897 -21.0681,-8.88897 z m 136.22269,0 h -0.008 c -7.90033,0 -15.47775,3.19779 -21.06811,8.88897 -5.59,5.68404 -8.72908,13.40193 -8.72908,21.44986 0,8.0411 3.13908,15.75882 8.72908,21.44983 5.58999,5.69101 13.16724,8.88181 21.06811,8.88181 7.90731,0 15.48475,-3.1906 21.07528,-8.88181 5.58999,-5.69138 8.72909,-13.40909 8.72909,-21.44983 0,-8.04828 -3.1391,-15.766 -8.72909,-21.44986 -5.58998,-5.69136 -13.16722,-8.88897 -21.07528,-8.88897 z m 136.22266,0 h -0.008 c -7.90031,0 -15.47776,3.19779 -21.0681,8.88897 -5.59,5.68404 -8.72909,13.40193 -8.72909,21.44986 0,8.0411 3.13909,15.75882 8.72909,21.44983 5.58999,5.69101 13.16725,8.88181 21.0681,8.88181 7.90735,0 15.48475,-3.1906 21.0753,-8.88181 5.59052,-5.69119 8.72908,-13.40909 8.72908,-21.44983 0,-8.04828 -3.1391,-15.766 -8.72908,-21.44986 -5.58999,-5.69136 -13.16727,-8.88897 -21.0753,-8.88897 z m 136.22267,0 h -0.008 c -7.90032,0 -15.48476,3.19779 -21.06812,8.88897 -5.58999,5.68404 -8.72909,13.40193 -8.72909,21.44986 0,8.0411 3.1391,15.75882 8.72909,21.44983 5.58299,5.69138 13.16727,8.88181 21.06812,8.88181 7.90732,0 15.48478,-3.1906 21.0753,-8.88181 5.58298,-5.69138 8.72206,-13.40909 8.72206,-21.44983 0,-8.04828 -3.13908,-15.766 -8.72206,-21.44986 -5.59002,-5.69136 -13.16725,-8.88897 -21.0753,-8.88897 z M 171.98566,519.29074 v 0.008 c -7.90732,0 -15.48476,3.19061 -21.07529,8.88182 -5.59054,5.69119 -8.72909,13.40909 -8.72909,21.44984 0,8.04827 3.1391,15.766 8.72909,21.44983 5.58999,5.69138 13.16726,8.88898 21.07529,8.88898 7.90032,0 15.47775,-3.19778 21.06808,-8.88898 5.59002,-5.68404 8.72911,-13.40193 8.72911,-21.44983 0,-8.04113 -3.13909,-15.75883 -8.72911,-21.44984 -5.58998,-5.69103 -13.16722,-8.88182 -21.06808,-8.88182 z m 136.22268,0 -0.008,0.008 c -7.90033,0 -15.47775,3.19061 -21.06812,8.88182 -5.59036,5.69119 -8.72909,13.40909 -8.72909,21.44984 0,8.04827 3.13909,15.766 8.72909,21.44983 5.58998,5.69138 13.16726,8.88898 21.06812,8.88898 7.90732,0 15.48474,-3.19778 21.07527,-8.88898 5.58998,-5.68404 8.72908,-13.40193 8.72908,-21.44983 0,-8.04113 -3.1391,-15.75883 -8.72908,-21.44984 -5.58999,-5.69139 -13.16724,-8.88182 -21.07527,-8.88182 z m 136.22266,0 -0.008,0.008 c -7.9003,0 -15.47776,3.19061 -21.0681,8.88182 -5.59038,5.69119 -8.72909,13.40909 -8.72909,21.44984 0,8.04827 3.1391,15.766 8.72909,21.44983 5.58999,5.69138 13.16725,8.88898 21.0681,8.88898 7.90734,0 15.48474,-3.19778 21.0753,-8.88898 5.59001,-5.68404 8.72908,-13.40193 8.72908,-21.44983 0,-8.04113 -3.13907,-15.75883 -8.72908,-21.44984 -5.59,-5.69103 -13.16726,-8.88182 -21.0753,-8.88182 z"
     id="path2"
     inkscape:connector-curvature="0"
     style="stroke-width:1.81857"
     inkscape:export-xdpi="3.0699999"
     inkscape:export-ydpi="3.0699999" />
  <path
     id="path817"
     d="m 568.35943,661.28398 c -17.6472,17.64719 -46.39409,17.64719 -64.04076,0 -17.6472,-17.64721 -17.6472,-46.3941 0,-64.04076 l 35.5786,-35.58075 c 17.64722,-17.64719 46.39409,-17.64719 64.04075,0 l 10e-4,10e-4 c 1.44848,1.40694 2.27019,3.33683 2.28473,5.35807 0.014,2.01914 -0.78234,3.96145 -2.21212,5.38941 -1.42769,1.42772 -3.36795,2.22455 -5.38942,2.21006 -2.01911,-0.014 -3.94899,-0.83625 -5.35807,-2.28474 -11.91991,-11.91993 -30.77674,-11.91993 -42.69399,0 l -35.57862,35.5786 c -11.91993,11.91992 -11.91993,30.77674 0,42.69402 11.91993,11.9178 30.77675,11.9178 42.69402,0 l 33.80004,-33.80002 v 0.001 c 1.40897,-1.44848 3.33893,-2.2702 5.35805,-2.28476 2.01913,-0.014 3.96145,0.78235 5.38941,2.21004 1.42769,1.42979 2.22457,3.37008 2.21006,5.38943 -0.014,2.02121 -0.83628,3.95108 -2.28474,5.3602 z m 67.60004,-67.60005 c -17.64719,17.6472 -46.39409,17.6472 -64.04077,0 h 0.001 c -1.44848,-1.40903 -2.2702,-3.33895 -2.28473,-5.35806 -0.014,-2.02123 0.78442,-3.96146 2.21211,-5.38942 1.4277,-1.42796 3.36797,-2.22458 5.38941,-2.21212 2.01913,0.014 3.94901,0.83625 5.35807,2.28473 11.91993,11.91992 30.77676,11.9178 42.69402,0 l 35.58075,-35.57861 c 11.9199,-11.91992 11.9199,-30.77674 0,-42.69401 -11.91993,-11.91991 -30.77678,-11.91991 -42.69404,0 l -33.80002,33.80001 -10e-4,-10e-4 c -1.409,1.44848 -3.33893,2.27225 -5.35806,2.28681 -2.02121,0.014 -3.96352,-0.78235 -5.391,-2.21005 -1.4277,-1.42976 -2.22457,-3.37007 -2.21006,-5.39099 0.014,-2.01914 0.83626,-3.95109 2.28473,-5.35807 l 33.80004,-33.80005 c 17.6472,-17.64718 46.39409,-17.64718 64.04075,0 17.64722,17.6472 17.64722,46.3941 0,64.04077 l -35.57861,35.57861 z"
     inkscape:connector-curvature="0"
     style="stroke-width:0.531238"
     inkscape:export-xdpi="3.0699999"
     inkscape:export-ydpi="3.0699999" />
</svg>
